<svg id="visual" viewBox="0 0 900 600" width="900" height="600" xmlns="http://www.w3.org/2000/svg" xmlns:xlink="http://www.w3.org/1999/xlink" version="1.1"><path d="M0 259L82 109L164 187L245 193L327 169L409 199L491 103L573 145L655 259L736 109L818 169L900 115L900 0L818 0L736 0L655 0L573 0L491 0L409 0L327 0L245 0L164 0L82 0L0 0Z" fill="#022558"></path><path d="M0 349L82 337L164 301L245 319L327 295L409 283L491 379L573 319L655 385L736 331L818 361L900 361L900 113L818 167L736 107L655 257L573 143L491 101L409 197L327 167L245 191L164 185L82 107L0 257Z" fill="#19437e"></path><path d="M0 433L82 433L164 391L245 367L327 403L409 409L491 493L573 385L655 493L736 415L818 481L900 475L900 359L818 359L736 329L655 383L573 317L491 377L409 281L327 293L245 317L164 299L82 335L0 347Z" fill="#2c64a5"></path><path d="M0 469L82 517L164 451L245 427L327 451L409 469L491 541L573 457L655 547L736 517L818 553L900 547L900 473L818 479L736 413L655 491L573 383L491 491L409 407L327 401L245 365L164 389L82 431L0 431Z" fill="#3e87ce"></path><path d="M0 601L82 601L164 601L245 601L327 601L409 601L491 601L573 601L655 601L736 601L818 601L900 601L900 545L818 551L736 515L655 545L573 455L491 539L409 467L327 449L245 425L164 449L82 515L0 467Z" fill="#4facf7"></path></svg>